<?xml version="1.0" standalone="no"?><!DOCTYPE svg PUBLIC "-//W3C//DTD SVG 1.1//EN" "http://www.w3.org/Graphics/SVG/1.1/DTD/svg11.dtd"><svg t="1599713733090" class="icon" viewBox="0 0 1024 1024" version="1.1" xmlns="http://www.w3.org/2000/svg" p-id="6802" xmlns:xlink="http://www.w3.org/1999/xlink" width="200" height="200"><defs><style type="text/css"></style></defs><path d="M502.365091 520.843636c-140.404364 0-254.603636-114.222545-254.603636-254.626909 0-140.381091 114.222545-254.580364 254.603636-254.580364s254.603636 114.199273 254.603636 254.580364C756.968727 406.621091 642.769455 520.843636 502.365091 520.843636zM502.365091 58.181818c-114.734545 0-208.058182 93.323636-208.058182 208.034909 0 114.734545 93.346909 208.081455 208.058182 208.081455s208.058182-93.346909 208.058182-208.081455C710.423273 151.505455 617.099636 58.181818 502.365091 58.181818z" p-id="6803"></path><path d="M918.341818 927.348364c-12.846545 0-23.272727-10.426182-23.272727-23.272727 0-211.223273-171.845818-383.069091-383.092364-383.069091-211.223273 0-383.045818 171.845818-383.045818 383.069091 0 12.846545-10.426182 23.272727-23.272727 23.272727s-23.272727-10.426182-23.272727-23.272727c0-236.893091 192.721455-429.614545 429.591273-429.614545 236.893091 0 429.637818 192.721455 429.637818 429.614545C941.614545 916.922182 931.188364 927.348364 918.341818 927.348364z" p-id="6804"></path><path d="M828.16 1012.363636 264.215273 1012.363636c-12.846545 0-23.272727-10.426182-23.272727-23.272727s10.426182-23.272727 23.272727-23.272727l563.944727 0c36.887273 0 66.909091-30.045091 66.909091-66.932364 0-12.846545 10.426182-23.272727 23.272727-23.272727s23.272727 10.426182 23.272727 23.272727C941.614545 961.466182 890.717091 1012.363636 828.16 1012.363636z" p-id="6805"></path><path d="M113.594182 1007.778909c-10.868364 0-20.573091-7.633455-22.784-18.688-5.585455-27.764364-8.401455-56.366545-8.401455-85.038545 0-236.893091 192.721455-429.614545 429.591273-429.614545 236.893091 0 429.614545 192.721455 429.614545 429.614545 0 12.846545-10.426182 23.272727-23.272727 23.272727s-23.272727-10.426182-23.272727-23.272727c0-211.223273-171.845818-383.069091-383.069091-383.069091-211.223273 0-383.045818 171.845818-383.045818 383.069091 0 25.6 2.513455 51.106909 7.493818 75.845818 2.536727 12.613818-5.632 24.878545-18.222545 27.415273C116.642909 1007.639273 115.106909 1007.778909 113.594182 1007.778909z" p-id="6806"></path></svg>